<svg xmlns="http://www.w3.org/2000/svg" version="1.1" x="0px" y="0px" viewBox="0 0 100 125">
 <g transform="translate(0,-952.36218)">
 <path style="text-indent:0;text-transform:none;direction:ltr;block-progression:tb;baseline-shift:baseline;color:#000000;enable-background:accumulate;" d="M 7.8124856,959.3667 A 1.0000823,1.0000474 0 0 0 7,960.36665 l 0,19.99895 a 1.0000823,1.0000474 0 1 0 1.9999646,0 l 0,-18.999 18.9996644,0 a 1.0000823,1.0000474 0 1 0 0,-1.9999 l -19.9996467,0 a 1.0000823,1.0000474 0 0 0 -0.1874967,0 z m 63.9988684,0 a 1.0043672,1.0043321 0 1 0 0.187496,1.9999 l 18.999664,0 0,18.999 a 1.0000823,1.0000474 0 1 0 1.999965,0 l 0,-19.99895 a 1.0000823,1.0000474 0 0 0 -0.999982,-0.99995 l -19.999647,0 a 1.0000823,1.0000474 0 0 0 -0.187496,0 z m -21.937112,27.96728 a 1.0000823,1.0000474 0 0 0 -0.874985,1.0312 l 0,12.99932 -12.99977,0 a 1.0000823,1.0000474 0 0 0 -0.187497,0 1.0043672,1.0043321 0 0 0 0.187497,1.9999 l 12.99977,0 0,12.9993 a 1.0000823,1.0000474 0 1 0 1.999965,0 l 0,-12.9993 12.99977,0 a 1.0000823,1.0000474 0 1 0 0,-1.9999 l -12.99977,0 0,-12.99932 a 1.0000823,1.0000474 0 0 0 -1.12498,-1.0312 z M 7.8749845,1023.3321 A 1.0000823,1.0000474 0 0 0 7,1024.3633 l 0,19.999 a 1.0000823,1.0000474 0 0 0 0.9999823,0.9999 l 19.9996467,0 a 1.0000823,1.0000474 0 1 0 0,-1.9999 l -18.9996644,0 0,-18.999 a 1.0000823,1.0000474 0 0 0 -1.1249801,-1.0312 z m 83.9985145,0 a 1.0000823,1.0000474 0 0 0 -0.874985,1.0312 l 0,18.999 -18.999664,0 a 1.0000823,1.0000474 0 1 0 0,1.9999 l 19.999647,0 a 1.0000823,1.0000474 0 0 0 0.999982,-0.9999 l 0,-19.999 a 1.0000823,1.0000474 0 0 0 -1.12498,-1.0312 z" fill="#ffff" fill-opacity="1" stroke-width="1" marker="none" visibility="visible" display="inline" overflow="visible"/>
 </g>
</svg>