
<svg height="32" width="32" version="1.1" fill="currentColor"  xmlns="http://www.w3.org/2000/svg" xmlns:xlink="http://www.w3.org/1999/xlink" 
	 viewBox="0 0 273.715 273.715" xml:space="preserve">
<g>
	<path d="M251.215,66.144h-33.969l-16.619-34.882c-2.427-5.091-8.281-8.786-13.921-8.786H87.01
		c-5.641,0-11.495,3.696-13.921,8.788l-16.62,34.88H22.5c-12.406,0-22.5,10.093-22.5,22.5v116.191c0,12.407,10.094,22.5,22.5,22.5
		h74.345c1.039,0,2.028-0.212,2.929-0.594c14.393,15.075,34.659,24.496,57.098,24.496c22.438,0,42.705-9.42,57.098-24.495
		c0.899,0.381,1.889,0.593,2.927,0.593h34.319c12.406,0,22.5-10.093,22.5-22.5V88.644C273.715,76.238,263.621,66.144,251.215,66.144
		z M86.557,37.87c0.145-0.146,0.431-0.326,0.624-0.394h99.354c0.194,0.068,0.482,0.249,0.625,0.395l13.471,28.273H73.084
		L86.557,37.87z M156.871,236.238c-35.282,0-63.986-28.705-63.986-63.987c0-35.283,28.704-63.988,63.986-63.988
		c35.282,0,63.986,28.705,63.986,63.988C220.857,207.533,192.153,236.238,156.871,236.238z M258.715,204.836
		c0,4.135-3.364,7.5-7.5,7.5h-26.324c6.957-11.76,10.967-25.46,10.967-40.085c0-43.554-35.434-78.988-78.986-78.988
		c-43.553,0-78.986,35.434-78.986,78.988c0,14.625,4.01,28.325,10.967,40.085H22.5c-4.136,0-7.5-3.365-7.5-7.5V88.644
		c0-4.135,3.364-7.5,7.5-7.5h228.715c4.136,0,7.5,3.365,7.5,7.5V204.836z"/>
	<path d="M156.871,128.968c-23.865,0-43.281,19.417-43.281,43.282c0,23.866,19.416,43.283,43.281,43.283
		c23.866,0,43.282-19.417,43.282-43.283C200.153,148.384,180.737,128.968,156.871,128.968z M156.871,200.533
		c-15.595,0-28.281-12.688-28.281-28.283c0-15.595,12.687-28.282,28.281-28.282c15.595,0,28.282,12.688,28.282,28.282
		C185.153,187.845,172.466,200.533,156.871,200.533z"/>
	<path d="M68.785,91.487H38.618c-5.514,0-10,4.486-10,10v14.114c0,5.514,4.486,10,10,10h30.167
		c5.514,0,10-4.486,10-10v-14.114C78.785,95.973,74.299,91.487,68.785,91.487z M68.771,115.601H38.618v-14.114h30.167
		L68.771,115.601z M68.785,120.601v-5h0.001L68.785,120.601z"/>
</g>
</svg>